{"asset":{"generator":"glTF-Transform v4.0.2","version":"2.0","extras":{"author":"AT design studio (https://sketchfab.com/ANDRIANIAINAToky)","license":"SKETCHFAB Standard (https://sketchfab.com/licenses)","source":"https://sketchfab.com/3d-models/parfum-bottle-eb42a7f2b2c14af1b1908d15eac175a2","title":"Parfum Bottle"}},"accessors":[{"type":"VEC3","componentType":5126,"count":19922,"max":[0.6471074223518372,0.7010632753372192,2.3628625869750977],"min":[-0.6471074223518372,-0.7010633945465088,-0.02087494544684887],"bufferView":0,"byteOffset":0},{"type":"VEC3","componentType":5126,"count":19922,"bufferView":0,"byteOffset":12},{"type":"VEC2","componentType":5126,"count":19922,"bufferView":0,"byteOffset":24},{"type":"SCALAR","componentType":5125,"count":119520,"bufferView":1,"byteOffset":0},{"type":"SCALAR","componentType":5125,"count":90720,"bufferView":1,"byteOffset":478080},{"type":"SCALAR","componentType":5125,"count":59484,"bufferView":1,"byteOffset":840960},{"type":"VEC3","componentType":5126,"count":15122,"max":[0.2919238805770874,0.3023034632205963,0.653706431388855],"min":[-0.2919238805770874,-0.3023034632205963,-0.3847388029098511],"bufferView":2,"byteOffset":0},{"type":"VEC3","componentType":5126,"count":15122,"bufferView":2,"byteOffset":12},{"type":"VEC2","componentType":5126,"count":15122,"bufferView":2,"byteOffset":24},{"type":"VEC3","componentType":5126,"count":9916,"max":[0.61358243227005,0.6657741069793701,1.9243474006652832],"min":[-0.6129434704780579,-0.6658192873001099,0.24928493797779083],"bufferView":3,"byteOffset":0},{"type":"VEC3","componentType":5126,"count":9916,"bufferView":3,"byteOffset":12}],"bufferViews":[{"buffer":0,"byteOffset":0,"byteLength":637504,"byteStride":32,"target":34962},{"buffer":0,"byteOffset":637504,"byteLength":1078896,"target":34963},{"buffer":0,"byteOffset":1716400,"byteLength":483904,"byteStride":32,"target":34962},{"buffer":0,"byteOffset":2200304,"byteLength":237984,"byteStride":24,"target":34962}],"buffers":[{"uri":"parfum_bottle.bin","byteLength":2438288}],"materials":[{"name":"Realistic_Glass","alphaMode":"BLEND","doubleSided":true,"pbrMetallicRoughness":{"baseColorFactor":[0,0,0,0.5575502191978722],"roughnessFactor":0.10892037260458132,"metallicFactor":0},"extensions":{"KHR_materials_specular":{"specularFactor":0.6848978114187536},"KHR_materials_transmission":{"transmissionFactor":0.4424497808021278}}},{"name":"Realistic_Glass.001","alphaMode":"BLEND","doubleSided":true,"pbrMetallicRoughness":{"baseColorFactor":[0.13950226835514037,0.008781614350962173,0.00172237422459296,0.7455395220001256],"roughnessFactor":0,"metallicFactor":0},"emissiveFactor":[0.24014228703712306,0.00557161282409868,0.0038379557689514152]}],"meshes":[{"name":"Bottle 1_Realistic Glass_0","primitives":[{"attributes":{"NORMAL":1,"POSITION":0,"TEXCOORD_0":2},"mode":4,"material":0,"indices":3}]},{"name":"Circle.001_Realistic Glass_0","primitives":[{"attributes":{"NORMAL":7,"POSITION":6,"TEXCOORD_0":8},"mode":4,"material":0,"indices":4}]},{"name":"Liquid_Realistic Glass.001_0","primitives":[{"attributes":{"NORMAL":10,"POSITION":9},"mode":4,"material":1,"indices":5}]}],"nodes":[{"name":"Sketchfab_model","rotation":[-0.7071067811865475,0,0,0.7071067811865476],"children":[1]},{"name":"2f387b385bc346849562d47c67f98fc7.fbx","rotation":[0.7071067811865475,0,0,0.7071067811865476],"scale":[0.009999999776482582,0.009999999776482582,0.009999999776482582],"children":[2]},{"name":"RootNode","children":[3]},{"name":"Bottle 1","rotation":[-0.7071068387877038,0,0,0.7071067235853866],"scale":[100,100.00000000000001,100.00000000000001],"children":[4,5,7]},{"name":"Bottle 1_Realistic Glass_0","mesh":0},{"name":"Circle.001","translation":[0,0,2.476860284805298],"children":[6]},{"name":"Circle.001_Realistic Glass_0","mesh":1},{"name":"Liquid","children":[8]},{"name":"Liquid_Realistic Glass.001_0","mesh":2}],"scenes":[{"name":"Sketchfab_Scene","nodes":[0]}],"scene":0,"extensionsUsed":["KHR_materials_specular","KHR_materials_transmission"]}